<svg xmlns="http://www.w3.org/2000/svg" width="1343" height="481" viewBox="0 0 1343 481" fill="none">
  <path opacity="0.25" d="M1342.28 1H1340.89V60H1342.28V61H1340.89V120H1342.28V121H1340.89V180H1342.28V181H1340.89V240H1342.28V241H1340.89V300H1342.28V301H1340.89V360H1342.28V361H1340.89V420H1342.28V421H1340.89V480H1342.28V481H1.54418V480H54.6336V421H1.54418V420H54.6336V361H1.54418V360H54.6336V301H1.54418V300H54.6336V241H1.54418V240H54.6336V181H1.54418V180H54.6336V121H1.54418V120H54.6336V61H1.54418V60H54.6336V1H1.54418V0H1342.28V1ZM-0.318607 480.5H-1.25V0.5H-0.318607V480.5ZM55.565 480H110.517V421H55.565V480ZM111.449 480H166.401V421H111.449V480ZM167.332 480H222.284V421H167.332V480ZM223.216 480H278.168V421H223.216V480ZM279.099 480H334.051V421H279.099V480ZM334.983 480H389.935V421H334.983V480ZM390.866 480H445.819V421H390.866V480ZM446.75 480H501.702V421H446.75V480ZM502.634 480H557.586V421H502.634V480ZM558.517 480H613.469V421H558.517V480ZM614.401 480H669.353V421H614.401V480ZM670.284 480H725.236V421H670.284V480ZM726.168 480H781.12V421H726.168V480ZM782.051 480H837.004V421H782.051V480ZM837.935 480H892.887V421H837.935V480ZM893.819 480H948.771V421H893.819V480ZM949.702 480H1004.65V421H949.702V480ZM1005.59 480H1060.54V421H1005.59V480ZM1061.47 480H1116.42V421H1061.47V480ZM1117.35 480H1172.31V421H1117.35V480ZM1173.24 480H1228.19V421H1173.24V480ZM1229.12 480H1284.07V421H1229.12V480ZM1285 480H1339.96V421H1285V480ZM55.565 420H110.517V361H55.565V420ZM111.449 420H166.401V361H111.449V420ZM167.332 420H222.284V361H167.332V420ZM223.216 420H278.168V361H223.216V420ZM279.099 420H334.051V361H279.099V420ZM334.983 420H389.935V361H334.983V420ZM390.866 420H445.819V361H390.866V420ZM446.75 420H501.702V361H446.75V420ZM502.634 420H557.586V361H502.634V420ZM558.517 420H613.469V361H558.517V420ZM614.401 420H669.353V361H614.401V420ZM670.284 420H725.236V361H670.284V420ZM726.168 420H781.12V361H726.168V420ZM782.051 420H837.004V361H782.051V420ZM837.935 420H892.887V361H837.935V420ZM893.819 420H948.771V361H893.819V420ZM949.702 420H1004.65V361H949.702V420ZM1005.59 420H1060.54V361H1005.59V420ZM1061.47 420H1116.42V361H1061.47V420ZM1117.35 420H1172.31V361H1117.35V420ZM1173.24 420H1228.19V361H1173.24V420ZM1229.12 420H1284.07V361H1229.12V420ZM1285 420H1339.96V361H1285V420ZM55.565 360H110.517V301H55.565V360ZM111.449 360H166.401V301H111.449V360ZM167.332 360H222.284V301H167.332V360ZM223.216 360H278.168V301H223.216V360ZM279.099 360H334.051V301H279.099V360ZM334.983 360H389.935V301H334.983V360ZM390.866 360H445.819V301H390.866V360ZM446.75 360H501.702V301H446.75V360ZM502.634 360H557.586V301H502.634V360ZM558.517 360H613.469V301H558.517V360ZM614.401 360H669.353V301H614.401V360ZM670.284 360H725.236V301H670.284V360ZM726.168 360H781.12V301H726.168V360ZM782.051 360H837.004V301H782.051V360ZM837.935 360H892.887V301H837.935V360ZM893.819 360H948.771V301H893.819V360ZM949.702 360H1004.65V301H949.702V360ZM1005.59 360H1060.54V301H1005.59V360ZM1061.47 360H1116.42V301H1061.47V360ZM1117.35 360H1172.31V301H1117.35V360ZM1173.24 360H1228.19V301H1173.24V360ZM1229.12 360H1284.07V301H1229.12V360ZM1285 360H1339.96V301H1285V360ZM55.565 300H110.517V241H55.565V300ZM111.449 300H166.401V241H111.449V300ZM167.332 300H222.284V241H167.332V300ZM223.216 300H278.168V241H223.216V300ZM279.099 300H334.051V241H279.099V300ZM334.983 300H389.935V241H334.983V300ZM390.866 300H445.819V241H390.866V300ZM446.75 300H501.702V241H446.75V300ZM502.634 300H557.586V241H502.634V300ZM558.517 300H613.469V241H558.517V300ZM614.401 300H669.353V241H614.401V300ZM670.284 300H725.236V241H670.284V300ZM726.168 300H781.12V241H726.168V300ZM782.051 300H837.004V241H782.051V300ZM837.935 300H892.887V241H837.935V300ZM893.819 300H948.771V241H893.819V300ZM949.702 300H1004.65V241H949.702V300ZM1005.59 300H1060.54V241H1005.59V300ZM1061.47 300H1116.42V241H1061.47V300ZM1117.35 300H1172.31V241H1117.35V300ZM1173.24 300H1228.19V241H1173.24V300ZM1229.12 300H1284.07V241H1229.12V300ZM1285 300H1339.96V241H1285V300ZM55.565 240H110.517V181H55.565V240ZM111.449 240H166.401V181H111.449V240ZM167.332 240H222.284V181H167.332V240ZM223.216 240H278.168V181H223.216V240ZM279.099 240H334.051V181H279.099V240ZM334.983 240H389.935V181H334.983V240ZM390.866 240H445.819V181H390.866V240ZM446.75 240H501.702V181H446.75V240ZM502.634 240H557.586V181H502.634V240ZM558.517 240H613.469V181H558.517V240ZM614.401 240H669.353V181H614.401V240ZM670.284 240H725.236V181H670.284V240ZM726.168 240H781.12V181H726.168V240ZM782.051 240H837.004V181H782.051V240ZM837.935 240H892.887V181H837.935V240ZM893.819 240H948.771V181H893.819V240ZM949.702 240H1004.65V181H949.702V240ZM1005.59 240H1060.54V181H1005.59V240ZM1061.47 240H1116.42V181H1061.47V240ZM1117.35 240H1172.31V181H1117.35V240ZM1173.24 240H1228.19V181H1173.24V240ZM1229.12 240H1284.07V181H1229.12V240ZM1285 240H1339.96V181H1285V240ZM55.565 180H110.517V121H55.565V180ZM111.449 180H166.401V121H111.449V180ZM167.332 180H222.284V121H167.332V180ZM223.216 180H278.168V121H223.216V180ZM279.099 180H334.051V121H279.099V180ZM334.983 180H389.935V121H334.983V180ZM390.866 180H445.819V121H390.866V180ZM446.75 180H501.702V121H446.75V180ZM502.634 180H557.586V121H502.634V180ZM558.517 180H613.469V121H558.517V180ZM614.401 180H669.353V121H614.401V180ZM670.284 180H725.236V121H670.284V180ZM726.168 180H781.12V121H726.168V180ZM782.051 180H837.004V121H782.051V180ZM837.935 180H892.887V121H837.935V180ZM893.819 180H948.771V121H893.819V180ZM949.702 180H1004.65V121H949.702V180ZM1005.59 180H1060.54V121H1005.59V180ZM1061.47 180H1116.42V121H1061.47V180ZM1117.35 180H1172.31V121H1117.35V180ZM1173.24 180H1228.19V121H1173.24V180ZM1229.12 180H1284.07V121H1229.12V180ZM1285 180H1339.96V121H1285V180ZM55.565 120H110.517V61H55.565V120ZM111.449 120H166.401V61H111.449V120ZM167.332 120H222.284V61H167.332V120ZM223.216 120H278.168V61H223.216V120ZM279.099 120H334.051V61H279.099V120ZM334.983 120H389.935V61H334.983V120ZM390.866 120H445.819V61H390.866V120ZM446.75 120H501.702V61H446.75V120ZM502.634 120H557.586V61H502.634V120ZM558.517 120H613.469V61H558.517V120ZM614.401 120H669.353V61H614.401V120ZM670.284 120H725.236V61H670.284V120ZM726.168 120H781.12V61H726.168V120ZM782.051 120H837.004V61H782.051V120ZM837.935 120H892.887V61H837.935V120ZM893.819 120H948.771V61H893.819V120ZM949.702 120H1004.65V61H949.702V120ZM1005.59 120H1060.54V61H1005.59V120ZM1061.47 120H1116.42V61H1061.47V120ZM1117.35 120H1172.31V61H1117.35V120ZM1173.24 120H1228.19V61H1173.24V120ZM1229.12 120H1284.07V61H1229.12V120ZM1285 120H1339.96V61H1285V120ZM55.565 60H110.517V1H55.565V60ZM111.449 60H166.401V1H111.449V60ZM167.332 60H222.284V1H167.332V60ZM223.216 60H278.168V1H223.216V60ZM279.099 60H334.051V1H279.099V60ZM334.983 60H389.935V1H334.983V60ZM390.866 60H445.819V1H390.866V60ZM446.75 60H501.702V1H446.75V60ZM502.634 60H557.586V1H502.634V60ZM558.517 60H613.469V1H558.517V60ZM614.401 60H669.353V1H614.401V60ZM670.284 60H725.236V1H670.284V60ZM726.168 60H781.12V1H726.168V60ZM782.051 60H837.004V1H782.051V60ZM837.935 60H892.887V1H837.935V60ZM893.819 60H948.771V1H893.819V60ZM949.702 60H1004.65V1H949.702V60ZM1005.59 60H1060.54V1H1005.59V60ZM1061.47 60H1116.42V1H1061.47V60ZM1117.35 60H1172.31V1H1117.35V60ZM1173.24 60H1228.19V1H1173.24V60ZM1229.12 60H1284.07V1H1229.12V60ZM1285 60H1339.96V1H1285V60Z" fill="url(#paint0_radial_3215_1146)"/>
  <defs>
    <radialGradient id="paint0_radial_3215_1146" cx="0" cy="0" r="1" gradientUnits="userSpaceOnUse" gradientTransform="translate(670.517 240.5) rotate(90) scale(296.5 828.187)">
      <stop stop-color="#E4A0F7"/>
      <stop offset="1" stop-color="#0E0A0F" stop-opacity="0"/>
    </radialGradient>
  </defs>
</svg>