<svg width="1440" height="601" viewBox="0 0 1440 601" fill="none" xmlns="http://www.w3.org/2000/svg">
<g clip-path="url(#clip0_3046_2429)">
<rect width="1440" height="601" fill="#010102"/>
<path opacity="0.25" d="M1636.18 -6H1634.14V69.2168H1636.18V70.2168H1634.14V145.433H1636.18V146.433H1634.14V221.649H1636.18V222.649H1634.14V297.865H1636.18V298.865H1634.14V374.081H1636.18V375.081H1634.14V450.298H1636.18V451.298H1634.14V526.514H1636.18V527.514H1634.14V602.73H1636.18V603.73H-192.372V602.73H-119.831V527.514H-192.372V526.514H-119.831V451.298H-192.372V450.298H-119.831V375.081H-192.372V374.081H-119.831V298.865H-192.372V297.865H-119.831V222.649H-192.372V221.649H-119.831V146.433H-192.372V145.433H-119.831V70.2168H-192.372V69.2168H-119.831V-6H-192.372V-7H1636.18V-6ZM-195.047 603.229H-196.047V-6.5H-195.047V603.229ZM-118.831 602.73H-43.6152V527.514H-118.831V602.73ZM-42.6152 602.73H32.6016V527.514H-42.6152V602.73ZM33.6016 602.73H108.817V527.514H33.6016V602.73ZM109.817 602.73H185.034V527.514H109.817V602.73ZM186.034 602.73H261.25V527.514H186.034V602.73ZM262.25 602.73H337.466V527.514H262.25V602.73ZM338.466 602.73H413.683V527.514H338.466V602.73ZM414.683 602.73H489.898V527.514H414.683V602.73ZM490.898 602.73H566.115V527.514H490.898V602.73ZM567.115 602.73H642.331V527.514H567.115V602.73ZM643.331 602.73H718.547V527.514H643.331V602.73ZM719.547 602.73H794.764V527.514H719.547V602.73ZM795.764 602.73H870.979V527.514H795.764V602.73ZM871.979 602.73H947.196V527.514H871.979V602.73ZM948.196 602.73H1023.41V527.514H948.196V602.73ZM1024.41 602.73H1099.63V527.514H1024.41V602.73ZM1100.63 602.73H1175.84V527.514H1100.63V602.73ZM1176.84 602.73H1252.06V527.514H1176.84V602.73ZM1253.06 602.73H1328.28V527.514H1253.06V602.73ZM1329.28 602.73H1404.49V527.514H1329.28V602.73ZM1405.49 602.73H1480.71V527.514H1405.49V602.73ZM1481.71 602.73H1556.93V527.514H1481.71V602.73ZM1557.93 602.73H1633.14V527.514H1557.93V602.73ZM-118.831 526.514H-43.6152V451.298H-118.831V526.514ZM-42.6152 526.514H32.6016V451.298H-42.6152V526.514ZM33.6016 526.514H108.817V451.298H33.6016V526.514ZM109.817 526.514H185.034V451.298H109.817V526.514ZM186.034 526.514H261.25V451.298H186.034V526.514ZM262.25 526.514H337.466V451.298H262.25V526.514ZM338.466 526.514H413.683V451.298H338.466V526.514ZM414.683 526.514H489.898V451.298H414.683V526.514ZM490.898 526.514H566.115V451.298H490.898V526.514ZM567.115 526.514H642.331V451.298H567.115V526.514ZM643.331 526.514H718.547V451.298H643.331V526.514ZM719.547 526.514H794.764V451.298H719.547V526.514ZM795.764 526.514H870.979V451.298H795.764V526.514ZM871.979 526.514H947.196V451.298H871.979V526.514ZM948.196 526.514H1023.41V451.298H948.196V526.514ZM1024.41 526.514H1099.63V451.298H1024.41V526.514ZM1100.63 526.514H1175.84V451.298H1100.63V526.514ZM1176.84 526.514H1252.06V451.298H1176.84V526.514ZM1253.06 526.514H1328.28V451.298H1253.06V526.514ZM1329.28 526.514H1404.49V451.298H1329.28V526.514ZM1405.49 526.514H1480.71V451.298H1405.49V526.514ZM1481.71 526.514H1556.93V451.298H1481.71V526.514ZM1557.93 526.514H1633.14V451.298H1557.93V526.514ZM-118.831 450.298H-43.6152V375.081H-118.831V450.298ZM-42.6152 450.298H32.6016V375.081H-42.6152V450.298ZM33.6016 450.298H108.817V375.081H33.6016V450.298ZM109.817 450.298H185.034V375.081H109.817V450.298ZM186.034 450.298H261.25V375.081H186.034V450.298ZM262.25 450.298H337.466V375.081H262.25V450.298ZM338.466 450.298H413.683V375.081H338.466V450.298ZM414.683 450.298H489.898V375.081H414.683V450.298ZM490.898 450.298H566.115V375.081H490.898V450.298ZM567.115 450.298H642.331V375.081H567.115V450.298ZM643.331 450.298H718.547V375.081H643.331V450.298ZM719.547 450.298H794.764V375.081H719.547V450.298ZM795.764 450.298H870.979V375.081H795.764V450.298ZM871.979 450.298H947.196V375.081H871.979V450.298ZM948.196 450.298H1023.41V375.081H948.196V450.298ZM1024.41 450.298H1099.63V375.081H1024.41V450.298ZM1100.63 450.298H1175.84V375.081H1100.63V450.298ZM1176.84 450.298H1252.06V375.081H1176.84V450.298ZM1253.06 450.298H1328.28V375.081H1253.06V450.298ZM1329.28 450.298H1404.49V375.081H1329.28V450.298ZM1405.49 450.298H1480.71V375.081H1405.49V450.298ZM1481.71 450.298H1556.93V375.081H1481.71V450.298ZM1557.93 450.298H1633.14V375.081H1557.93V450.298ZM-118.831 374.081H-43.6152V298.865H-118.831V374.081ZM-42.6152 374.081H32.6016V298.865H-42.6152V374.081ZM33.6016 374.081H108.817V298.865H33.6016V374.081ZM109.817 374.081H185.034V298.865H109.817V374.081ZM186.034 374.081H261.25V298.865H186.034V374.081ZM262.25 374.081H337.466V298.865H262.25V374.081ZM338.466 374.081H413.683V298.865H338.466V374.081ZM414.683 374.081H489.898V298.865H414.683V374.081ZM490.898 374.081H566.115V298.865H490.898V374.081ZM567.115 374.081H642.331V298.865H567.115V374.081ZM643.331 374.081H718.547V298.865H643.331V374.081ZM719.547 374.081H794.764V298.865H719.547V374.081ZM795.764 374.081H870.979V298.865H795.764V374.081ZM871.979 374.081H947.196V298.865H871.979V374.081ZM948.196 374.081H1023.41V298.865H948.196V374.081ZM1024.41 374.081H1099.63V298.865H1024.41V374.081ZM1100.63 374.081H1175.84V298.865H1100.63V374.081ZM1176.84 374.081H1252.06V298.865H1176.84V374.081ZM1253.06 374.081H1328.28V298.865H1253.06V374.081ZM1329.28 374.081H1404.49V298.865H1329.28V374.081ZM1405.49 374.081H1480.71V298.865H1405.49V374.081ZM1481.71 374.081H1556.93V298.865H1481.71V374.081ZM1557.93 374.081H1633.14V298.865H1557.93V374.081ZM-118.831 297.865H-43.6152V222.649H-118.831V297.865ZM-42.6152 297.865H32.6016V222.649H-42.6152V297.865ZM33.6016 297.865H108.817V222.649H33.6016V297.865ZM109.817 297.865H185.034V222.649H109.817V297.865ZM186.034 297.865H261.25V222.649H186.034V297.865ZM262.25 297.865H337.466V222.649H262.25V297.865ZM338.466 297.865H413.683V222.649H338.466V297.865ZM414.683 297.865H489.898V222.649H414.683V297.865ZM490.898 297.865H566.115V222.649H490.898V297.865ZM567.115 297.865H642.331V222.649H567.115V297.865ZM643.331 297.865H718.547V222.649H643.331V297.865ZM719.547 297.865H794.764V222.649H719.547V297.865ZM795.764 297.865H870.979V222.649H795.764V297.865ZM871.979 297.865H947.196V222.649H871.979V297.865ZM948.196 297.865H1023.41V222.649H948.196V297.865ZM1024.41 297.865H1099.63V222.649H1024.41V297.865ZM1100.63 297.865H1175.84V222.649H1100.63V297.865ZM1176.84 297.865H1252.06V222.649H1176.84V297.865ZM1253.06 297.865H1328.28V222.649H1253.06V297.865ZM1329.28 297.865H1404.49V222.649H1329.28V297.865ZM1405.49 297.865H1480.71V222.649H1405.49V297.865ZM1481.71 297.865H1556.93V222.649H1481.71V297.865ZM1557.93 297.865H1633.14V222.649H1557.93V297.865ZM-118.831 221.649H-43.6152V146.433H-118.831V221.649ZM-42.6152 221.649H32.6016V146.433H-42.6152V221.649ZM33.6016 221.649H108.817V146.433H33.6016V221.649ZM109.817 221.649H185.034V146.433H109.817V221.649ZM186.034 221.649H261.25V146.433H186.034V221.649ZM262.25 221.649H337.466V146.433H262.25V221.649ZM338.466 221.649H413.683V146.433H338.466V221.649ZM414.683 221.649H489.898V146.433H414.683V221.649ZM490.898 221.649H566.115V146.433H490.898V221.649ZM567.115 221.649H642.331V146.433H567.115V221.649ZM643.331 221.649H718.547V146.433H643.331V221.649ZM719.547 221.649H794.764V146.433H719.547V221.649ZM795.764 221.649H870.979V146.433H795.764V221.649ZM871.979 221.649H947.196V146.433H871.979V221.649ZM948.196 221.649H1023.41V146.433H948.196V221.649ZM1024.41 221.649H1099.63V146.433H1024.41V221.649ZM1100.63 221.649H1175.84V146.433H1100.63V221.649ZM1176.84 221.649H1252.06V146.433H1176.84V221.649ZM1253.06 221.649H1328.28V146.433H1253.06V221.649ZM1329.28 221.649H1404.49V146.433H1329.28V221.649ZM1405.49 221.649H1480.71V146.433H1405.49V221.649ZM1481.71 221.649H1556.93V146.433H1481.71V221.649ZM1557.93 221.649H1633.14V146.433H1557.93V221.649ZM-118.831 145.433H-43.6152V70.2168H-118.831V145.433ZM-42.6152 145.433H32.6016V70.2168H-42.6152V145.433ZM33.6016 145.433H108.817V70.2168H33.6016V145.433ZM109.817 145.433H185.034V70.2168H109.817V145.433ZM186.034 145.433H261.25V70.2168H186.034V145.433ZM262.25 145.433H337.466V70.2168H262.25V145.433ZM338.466 145.433H413.683V70.2168H338.466V145.433ZM414.683 145.433H489.898V70.2168H414.683V145.433ZM490.898 145.433H566.115V70.2168H490.898V145.433ZM567.115 145.433H642.331V70.2168H567.115V145.433ZM643.331 145.433H718.547V70.2168H643.331V145.433ZM719.547 145.433H794.764V70.2168H719.547V145.433ZM795.764 145.433H870.979V70.2168H795.764V145.433ZM871.979 145.433H947.196V70.2168H871.979V145.433ZM948.196 145.433H1023.41V70.2168H948.196V145.433ZM1024.41 145.433H1099.63V70.2168H1024.41V145.433ZM1100.63 145.433H1175.84V70.2168H1100.63V145.433ZM1176.84 145.433H1252.06V70.2168H1176.84V145.433ZM1253.06 145.433H1328.28V70.2168H1253.06V145.433ZM1329.28 145.433H1404.49V70.2168H1329.28V145.433ZM1405.49 145.433H1480.71V70.2168H1405.49V145.433ZM1481.71 145.433H1556.93V70.2168H1481.71V145.433ZM1557.93 145.433H1633.14V70.2168H1557.93V145.433ZM-118.831 69.2168H-43.6152V-6H-118.831V69.2168ZM-42.6152 69.2168H32.6016V-6H-42.6152V69.2168ZM33.6016 69.2168H108.817V-6H33.6016V69.2168ZM109.817 69.2168H185.034V-6H109.817V69.2168ZM186.034 69.2168H261.25V-6H186.034V69.2168ZM262.25 69.2168H337.466V-6H262.25V69.2168ZM338.466 69.2168H413.683V-6H338.466V69.2168ZM414.683 69.2168H489.898V-6H414.683V69.2168ZM490.898 69.2168H566.115V-6H490.898V69.2168ZM567.115 69.2168H642.331V-6H567.115V69.2168ZM643.331 69.2168H718.547V-6H643.331V69.2168ZM719.547 69.2168H794.764V-6H719.547V69.2168ZM795.764 69.2168H870.979V-6H795.764V69.2168ZM871.979 69.2168H947.196V-6H871.979V69.2168ZM948.196 69.2168H1023.41V-6H948.196V69.2168ZM1024.41 69.2168H1099.63V-6H1024.41V69.2168ZM1100.63 69.2168H1175.84V-6H1100.63V69.2168ZM1176.84 69.2168H1252.06V-6H1176.84V69.2168ZM1253.06 69.2168H1328.28V-6H1253.06V69.2168ZM1329.28 69.2168H1404.49V-6H1329.28V69.2168ZM1405.49 69.2168H1480.71V-6H1405.49V69.2168ZM1481.71 69.2168H1556.93V-6H1481.71V69.2168ZM1557.93 69.2168H1633.14V-6H1557.93V69.2168Z" fill="url(#paint0_radial_3046_2429)"/>
<g filter="url(#filter0_f_3046_2429)">
<mask id="path-2-inside-1_3046_2429" fill="white">
<path d="M1219.35 531.065C1219.35 398.97 1166.71 272.285 1073 178.88C979.292 85.4746 852.197 33 719.675 33C587.153 33 460.059 85.4745 366.351 178.88C272.644 272.285 220 398.97 220 531.065L719.675 531.065H1219.35Z"/>
</mask>
<path d="M1219.35 531.065C1219.35 398.97 1166.71 272.285 1073 178.88C979.292 85.4746 852.197 33 719.675 33C587.153 33 460.059 85.4745 366.351 178.88C272.644 272.285 220 398.97 220 531.065L719.675 531.065H1219.35Z" fill="url(#paint1_linear_3046_2429)" stroke="url(#paint2_linear_3046_2429)" stroke-width="2.14683" mask="url(#path-2-inside-1_3046_2429)"/>
<mask id="path-3-inside-2_3046_2429" fill="white">
<path d="M1164.61 520.868C1164.61 402.865 1117.79 289.695 1034.45 206.254C951.106 122.813 838.073 75.9367 720.212 75.9366C602.351 75.9366 489.318 122.813 405.978 206.254C322.638 289.695 275.818 402.864 275.818 520.867L720.212 520.868H1164.61Z"/>
</mask>
<path d="M1164.61 520.868C1164.61 402.865 1117.79 289.695 1034.45 206.254C951.106 122.813 838.073 75.9367 720.212 75.9366C602.351 75.9366 489.318 122.813 405.978 206.254C322.638 289.695 275.818 402.864 275.818 520.867L720.212 520.868H1164.61Z" fill="url(#paint3_linear_3046_2429)" stroke="url(#paint4_linear_3046_2429)" stroke-width="4.29366" mask="url(#path-3-inside-2_3046_2429)"/>
<mask id="path-4-inside-3_3046_2429" fill="white">
<path d="M1120.6 518.721C1120.6 412.675 1078.53 310.972 1003.64 235.986C928.755 161 827.189 118.873 721.285 118.873C615.381 118.873 513.815 161 438.93 235.986C364.045 310.972 321.975 412.675 321.974 518.721L721.285 518.721H1120.6Z"/>
</mask>
<path d="M1120.6 518.721C1120.6 412.675 1078.53 310.972 1003.64 235.986C928.755 161 827.189 118.873 721.285 118.873C615.381 118.873 513.815 161 438.93 235.986C364.045 310.972 321.975 412.675 321.974 518.721L721.285 518.721H1120.6Z" fill="url(#paint5_linear_3046_2429)" stroke="url(#paint6_linear_3046_2429)" stroke-width="2.14683" mask="url(#path-4-inside-3_3046_2429)"/>
</g>
</g>
<defs>
<filter id="filter0_f_3046_2429" x="214" y="27" width="1011.35" height="580" filterUnits="userSpaceOnUse" color-interpolation-filters="sRGB">
<feFlood flood-opacity="0" result="BackgroundImageFix"/>
<feBlend mode="normal" in="SourceGraphic" in2="BackgroundImageFix" result="shape"/>
<feGaussianBlur stdDeviation="3" result="effect1_foregroundBlur_3046_2429"/>
</filter>
<radialGradient id="paint0_radial_3046_2429" cx="0" cy="0" r="1" gradientUnits="userSpaceOnUse" gradientTransform="translate(720.067 313.865) rotate(90) scale(360.969 1082.93)">
<stop stop-color="#9E1970"/>
<stop offset="1" stop-color="white" stop-opacity="0"/>
</radialGradient>
<linearGradient id="paint1_linear_3046_2429" x1="719.675" y1="33" x2="719.754" y2="278" gradientUnits="userSpaceOnUse">
<stop stop-color="#1467B5"/>
<stop offset="0.577165" stop-color="#FF98AF"/>
<stop offset="1" stop-color="#3A3A3A" stop-opacity="0"/>
</linearGradient>
<linearGradient id="paint2_linear_3046_2429" x1="719.675" y1="33" x2="720.208" y2="549.254" gradientUnits="userSpaceOnUse">
<stop stop-color="white" stop-opacity="0.13"/>
<stop offset="1" stop-color="#212139" stop-opacity="0"/>
</linearGradient>
<linearGradient id="paint3_linear_3046_2429" x1="720.212" y1="75.9366" x2="720.212" y2="308.5" gradientUnits="userSpaceOnUse">
<stop stop-color="#02041A"/>
<stop offset="1" stop-color="#16162E" stop-opacity="0"/>
</linearGradient>
<linearGradient id="paint4_linear_3046_2429" x1="720.212" y1="75.9366" x2="720.69" y2="537.116" gradientUnits="userSpaceOnUse">
<stop stop-color="#B9B9B9" stop-opacity="0.26"/>
<stop offset="1" stop-color="#212139" stop-opacity="0"/>
</linearGradient>
<linearGradient id="paint5_linear_3046_2429" x1="721.285" y1="118.873" x2="721.286" y2="394" gradientUnits="userSpaceOnUse">
<stop stop-color="#02041A"/>
<stop offset="1" stop-color="#16162E" stop-opacity="0"/>
</linearGradient>
<linearGradient id="paint6_linear_3046_2429" x1="721.285" y1="118.873" x2="721.715" y2="533.323" gradientUnits="userSpaceOnUse">
<stop stop-color="#212139"/>
<stop offset="1" stop-color="#212139" stop-opacity="0"/>
</linearGradient>
<clipPath id="clip0_3046_2429">
<rect width="1440" height="601" fill="white"/>
</clipPath>
</defs>
</svg>
