<svg xmlns="http://www.w3.org/2000/svg" width="888" height="286" viewBox="0 0 888 286" fill="none">
  <path fill-rule="evenodd" clip-rule="evenodd" d="M0 143V286H444H888V143V0H444H0V143ZM67 78.918C67 82.568 65.836 84 62.868 84C60.713 84 59.713 84.624 59.043 86.387C58.367 88.164 57.436 125.706 57.928 131.321C58.008 132.233 61 129.508 61 128.524C61 128.183 63.138 125.71 65.75 123.028C68.362 120.345 71.85 116.49 73.5 114.461C75.15 112.431 77.401 109.81 78.502 108.635C79.603 107.461 82.978 103.601 86.002 100.058C89.026 96.514 93.188 91.792 95.25 89.563C97.313 87.334 99 85.171 99 84.755C99 84.34 97.2 84 95 84C91.095 84 91 83.917 91 80.5V77H106.5H122V80.5C122 83.967 121.959 84 117.62 84C113.555 84 112.746 84.487 106.37 90.768C100.313 96.734 97.789 99.543 90.284 108.669C85.203 114.848 81.293 119.47 79.5 121.417C73.173 128.289 73.338 127.492 77.272 132.23C79.221 134.578 82.32 138.087 84.158 140.027C85.996 141.967 88.832 145.342 90.46 147.527C92.089 149.712 95.351 153.448 97.71 155.829C100.07 158.21 102 160.363 102 160.615C102 161.762 116.688 176.762 119.047 178.025C121.708 179.449 132.204 179.161 134.25 177.608C135.84 176.401 136 173.824 136 149.34C136 129.72 135.674 122.074 134.8 121.2C134.14 120.54 132.163 120 130.407 120C126.957 120 125.523 118.078 126.553 114.833C127.109 113.081 128.201 112.968 142.109 113.224L157.067 113.5L157.283 144.707C157.534 180.839 156.966 178.936 167.5 178.936C177.923 178.936 177.5 180.176 177.5 149.612C177.5 120.6 177.378 120 171.494 120C169.024 120 168.1 119.491 167.685 117.904C166.465 113.237 167.233 113 183.607 113H199L199.03 119.25C199.055 124.382 199.26 125.142 200.174 123.5C202.266 119.741 209.335 114.074 213.848 112.536C223.172 109.359 232.684 111.242 238.596 117.435C243.541 122.614 244 125.3 244 149.024C244 174.116 244.283 176.352 247.649 177.886C250.84 179.34 259.217 179.314 262.453 177.839L265 176.679V131.768C265 82.753 265.15 84 259.271 84C255.803 84 254 82.392 254 79.3V77H270.065H286.131L285.815 101.001C285.57 119.704 285.776 125.002 286.75 125.001C287.438 125 288 124.31 288 123.466C288 121.104 293.75 116.025 299.405 113.392C308.229 109.283 319.642 110.642 325.5 116.5C330.488 121.488 331 124.523 331 149.1C331 164.692 331.376 172.837 332.163 174.316C333.83 177.445 336.095 178.932 339.25 178.968C341.72 178.997 342 179.356 342 182.5V186H321.5H301V182.5C301 179.33 301.265 179 303.811 179C305.358 179 307.608 178.082 308.811 176.961C310.934 174.984 311 174.261 311 153.11C311 140.798 310.554 130.018 309.975 128.359C308.561 124.302 304.075 122.655 298.867 124.28C296.74 124.944 295 125.827 295 126.243C295 126.66 294.483 127 293.851 127C293.219 127 291.194 128.553 289.351 130.45L286 133.901V154.411C286 174.223 286.075 174.992 288.189 176.961C289.478 178.162 291.738 179 293.689 179C296.806 179 297 179.205 297 182.5V186H255H213V182.5C213 179.167 213.167 179 216.5 179C218.667 179 220.762 178.238 222 177C223.877 175.123 224 173.667 224 153.321C224 128.163 223.46 125.518 217.99 123.879C214.915 122.958 213.686 123.137 209.449 125.127C206.727 126.405 203.263 128.715 201.75 130.26L199 133.069V154.874V176.679L201.547 177.839C202.948 178.478 205.15 179 206.44 179C209.079 179 210.129 180.791 209.315 183.904L208.767 186H143.32H77.873L78.187 182.75C78.48 179.71 78.786 179.468 82.922 179C88.06 178.419 88.818 177.255 86.015 174.247C84.907 173.057 84 171.81 84 171.475C84 171.14 82.429 169.209 80.509 167.183C78.588 165.157 77.013 163.161 77.009 162.746C77.004 162.332 74.978 159.857 72.506 157.246C70.034 154.636 68.009 152.184 68.006 151.798C68.003 151.412 66.537 149.612 64.75 147.798C62.962 145.984 61.001 143.6 60.391 142.5C59.781 141.4 58.927 140.5 58.494 140.5C57.61 140.5 57.787 170.103 58.694 174C59.559 177.718 60.93 179 64.039 179C67.083 179 67.879 180.185 67.204 183.712L66.767 186H46.883H27V182.5C27 179.236 27.214 179 30.171 179C31.915 179 34.165 178.255 35.171 177.345C36.891 175.788 36.998 173.066 36.968 131.595C36.933 82.768 37.097 84 30.64 84C27.147 84 27 83.859 27 80.5V77H47C66.049 77 67 77.091 67 78.918ZM513 78.785C514.375 79.377 516.737 80.126 518.25 80.45L521 81.038V92.571V104.105L515.75 103.802L510.5 103.5L509.875 97.686C509.392 93.187 508.614 91.207 506.438 88.936C504.891 87.321 502.837 86 501.872 86C500.907 86 499.84 85.55 499.5 85C498.632 83.595 492.413 83.754 489.736 85.25C486.076 87.296 482.9 90.326 481.405 93.2C479.802 96.281 479.488 107 481 107C481.55 107 482 107.66 482 108.468C482 109.947 489.947 116.381 495.5 119.396C499.161 121.385 502.329 123.329 503 124C503.275 124.275 504.689 125.175 506.141 126C512.398 129.553 521.448 137.652 523.763 141.769C524.458 143.005 525.648 146.678 526.407 149.933C527.584 154.978 527.581 156.832 526.387 162.529C525.617 166.204 524.09 170.47 522.993 172.009C521.897 173.549 521 175.302 521 175.904C521 176.507 520.635 177 520.189 177C519.742 177 518.505 177.791 517.439 178.758C514.353 181.556 510.202 184 508.535 184C507.691 184 507 184.45 507 185C507 185.55 505.65 186 504 186C502.35 186 501 186.45 501 187C501 187.619 495.686 188 487.059 188C478.844 188 472.864 187.589 472.5 187C472.16 186.45 469.771 185.993 467.191 185.985C464.611 185.976 461.964 185.629 461.31 185.212C460.33 184.59 459.519 170.989 459.94 162.25C459.977 161.473 461.482 161 463.918 161C470.386 161 471 161.572 471 167.607C471 170.573 471.42 173 471.933 173C472.446 173 473.151 173.9 473.5 175C473.849 176.1 475.004 177 476.067 177C477.13 177 478 177.388 478 177.862C478 178.336 480.503 179.227 483.563 179.841C489.15 180.963 498 179.707 498 177.793C498 177.357 498.482 177 499.071 177C502.325 177 505.462 169.97 505.483 162.631C505.505 154.896 503.927 151.162 499.302 148C497.29 146.625 495.162 145.05 494.572 144.5C493.982 143.95 491.539 142.484 489.143 141.243C478.633 135.8 477.149 134.752 469.65 127.472C464.2 122.181 462 119.31 462 117.489C462 116.67 461.55 116 461 116C460.409 116 460 112.396 460 107.188C460 91.985 465.19 84.814 481.11 78.019C484.151 76.721 509.627 77.333 513 78.785ZM147.5 90C147.84 90.55 148.787 91 149.604 91C150.422 91 152.195 92.105 153.545 93.455C155.432 95.341 156 96.962 156 100.455C156 102.955 155.55 105 155 105C154.45 105 154 105.645 154 106.433C154 107.221 153.1 108.151 152 108.5C150.9 108.849 150 109.554 150 110.067C150 110.58 147.975 111 145.5 111C143.025 111 141 110.55 141 110C141 109.45 140.401 109 139.669 109C137.652 109 135.528 104.24 135.64 99.971C135.746 95.919 138.359 92.49 143 90.31C146.184 88.814 146.743 88.776 147.5 90ZM620.5 90C620.84 90.55 621.827 91 622.693 91C624.665 91 628.678 95.581 629.47 98.736C630.16 101.484 626.386 109 624.316 109C623.592 109 623 109.45 623 110C623 112.038 615.003 111.085 612.513 108.75C606.049 102.691 607.464 94.015 615.492 90.486C619.286 88.818 619.742 88.773 620.5 90ZM372.545 101.75L372.5 112.5L383.311 112.784L394.122 113.069L393.811 116.284L393.5 119.5L382.75 119.784L372 120.068V142.867C372 168.976 372.963 176.206 376.664 177.893C379.876 179.356 386.73 179.311 387.226 177.823C387.869 175.892 390 177.93 390 180.477C390 184.566 388.934 186 385.893 186C384.302 186 383 186.45 383 187C383 188.361 373.477 188.266 369.071 186.861C361.678 184.504 356 180.711 356 178.129C356 177.6 355.57 177.017 355.043 176.833C353.028 176.131 351.862 161.566 352.177 141.027L352.5 119.998L347.687 119.999L342.873 120L343.187 116.75C343.48 113.712 343.787 113.467 347.91 113L352.32 112.5L352.094 104.181C351.829 94.385 352.603 93.006 358.372 92.985C360.643 92.976 363.175 92.533 364 92C364.825 91.467 367.095 91.024 369.045 91.015L372.59 91L372.545 101.75ZM444 96.5C444 97.325 443.185 98 442.189 98C441.192 98 439.411 98.9 438.23 100C437.05 101.1 435.39 102 434.542 102C433.694 102 433 102.45 433 103C433 104.205 430.328 104.34 429.606 103.172C429.325 102.716 430.27 100.691 431.707 98.672C434.1 95.308 434.726 95 439.16 95C442.796 95 444 95.373 444 96.5ZM557.046 101.282C558.865 102.716 562 107.107 562 108.223C562 109.843 557.751 108.903 554.215 106.5C552.191 105.125 549.965 104 549.268 104C548.571 104 548 103.1 548 102C548 100.35 548.656 100.006 551.75 100.032C553.813 100.049 556.196 100.612 557.046 101.282ZM739.575 103.75C741.433 105.813 742.964 107.838 742.977 108.25C743.032 110.046 735.784 108.294 734 106.08C733.725 105.739 732.263 104.916 730.75 104.251C726.447 102.361 727.196 100 732.098 100C735.567 100 736.716 100.576 739.575 103.75ZM426.458 104.536C428.235 105.891 430.209 107 430.844 107C432.087 107 432.423 109.244 431.342 110.325C430.98 110.687 430.193 110.59 429.592 110.11C426.181 107.383 406 107.379 406 110.105C406 110.597 405.325 111 404.5 111C401.669 111 403.003 108.264 407.183 105.497C414.622 100.575 420.857 100.264 426.458 104.536ZM429.46 112.706C432.507 113.644 435 114.769 435 115.206C435 115.643 435.494 116 436.099 116C438.06 116 443.013 122.156 445.597 127.807C447.357 131.654 448.298 135.843 448.709 141.661L449.297 150H426.708C413.877 150 403.87 150.401 403.544 150.929C402.788 152.152 404.782 160.588 406.858 164.953C408.791 169.018 412.258 173 413.865 173C414.489 173 415 173.34 415 173.757C415 175.177 422.959 177 429.163 177C434.999 177 439.657 176.018 444.683 173.729C448.528 171.977 449.676 173.264 449.058 178.633C448.616 182.473 448.085 183.542 446.5 183.79C445.4 183.962 443.6 184.504 442.5 184.995C437.803 187.089 420.775 187.964 412.5 186.537C402.212 184.763 392.408 178.123 388.383 170.204C387.347 168.167 386.23 166.275 385.899 166C383.598 164.085 382.172 141.58 384.038 136.624C386.462 130.187 390.455 123.488 393.29 121.102C394.902 119.746 396.814 118.044 397.539 117.318C398.264 116.593 399.302 116 399.845 116C400.389 116 400.983 115.653 401.167 115.228C401.848 113.65 411.705 111.188 417.71 111.096C421.126 111.043 426.414 111.768 429.46 112.706ZM574.015 112.664C577.307 113.579 580 114.704 580 115.164C580 115.624 580.502 116 581.115 116C583.227 116 588.803 123.181 589.53 126.837C589.931 128.852 590.442 140.786 590.666 153.358C591.097 177.553 591.394 179 595.929 179C597.068 179 598.036 179.563 598.079 180.25C598.142 181.25 598.259 181.25 598.662 180.25C598.94 179.563 600.619 179 602.395 179C604.261 179 606.546 178.14 607.811 176.961C609.95 174.969 610 174.353 609.985 150.211C609.968 122.028 609.689 120.686 603.731 120.19C600.771 119.943 599.885 119.391 599.41 117.497C599.081 116.186 599.106 114.638 599.465 114.057C600.465 112.438 629.991 112.625 630.029 114.25C630.045 114.938 630.032 128.218 630.001 143.763C629.942 172.622 630.201 174.868 633.913 177.718C634.786 178.388 636.737 178.951 638.25 178.968C640.72 178.997 641 179.356 641 182.5V186H618.059C603.844 186 594.883 186.38 594.5 187C593.747 188.219 586.635 188.324 584.236 187.151C578.066 184.135 576.391 182.974 575.513 181.103C574.22 178.348 572.412 178.449 568.411 181.5C566.608 182.875 564.428 184 563.567 184C562.705 184 562 184.399 562 184.887C562 186.712 547.314 188.714 545.708 187.108C545.099 186.499 543.749 186 542.71 186C540.26 186 533.199 181.012 532.447 178.75C532.127 177.787 531.446 177 530.933 177C530.42 177 530 176.127 530 175.059C530 173.991 529.55 172.84 529 172.5C528.45 172.16 528 169.685 528 167C528 164.315 528.45 161.84 529 161.5C529.55 161.16 530 159.839 530 158.565C530 154.58 536.704 148.495 546.127 143.925C547.022 143.491 552.539 142.993 558.387 142.818C570.881 142.444 570.545 142.804 569.495 130.945C568.598 120.811 566.282 118 558.828 118C551.01 118 546.085 121.945 546.032 128.25L546 132H540.5H535V124C535 117.524 535.288 116 536.514 116C537.346 116 538.809 115.542 539.764 114.983C546.153 111.24 564.44 110.002 574.015 112.664ZM681.343 112.458C685.04 113.776 698.059 113.298 708.843 111.448C712.179 110.876 712.185 110.882 711.472 114.187C711.078 116.009 710.361 117.65 709.878 117.833C709.395 118.017 709 119.029 709 120.083C709 121.138 708.438 122.046 707.75 122.101C704.773 122.343 699.467 121.748 697.324 120.933C695.57 120.266 695 120.397 695 121.466C695 122.245 695.422 123.142 695.937 123.461C698.108 124.803 700 130.675 700 136.071C700 143.229 697.171 150.159 692.422 154.639C689.179 157.697 687.313 158.756 679.703 161.859C675.972 163.381 665.721 163.321 664.169 161.769C663.194 160.794 662.32 161.199 659.969 163.715C658.336 165.462 657 167.377 657 167.971C657 170.251 663.108 171.337 679.5 171.969C691.491 172.431 697.217 173.048 698.933 174.062C703.366 176.682 707 180.306 707 182.106C707 183.083 707.45 184.16 708 184.5C708.55 184.84 709 186.891 709 189.059C709 191.227 708.55 193 708 193C707.45 193 707 194.087 707 195.416C707 200.156 693.783 211 688.006 211C686.968 211 685.84 211.45 685.5 212C685.13 212.599 678.49 213 668.941 213C658.98 213 653 212.625 653 212C653 211.45 651.462 211 649.583 211C647.704 211 646.017 210.662 645.833 210.25C645.65 209.838 643.72 208.6 641.544 207.5C636.575 204.988 633.588 200.15 634.485 196.067C635.299 192.364 640.46 186.754 644.75 184.909C648.628 183.242 648.774 182.397 645.612 179.91C642.423 177.401 641.601 173.673 643.449 170.099C645.01 167.081 651.99 161 653.894 161C654.502 161 655 160.55 655 160C655 159.45 654.462 159 653.804 159C651.481 159 645.167 153.817 643.97 150.927C643.303 149.317 642.362 148 641.879 148C641.395 148 641 146.942 641 145.649C641 144.356 640.492 141.84 639.87 140.058C638.708 136.722 639.444 132.62 642.499 125.419C644.282 121.217 651.973 114.867 657.745 112.832C663.584 110.773 676.062 110.575 681.343 112.458ZM752.586 112.709C756.114 113.649 759 114.774 759 115.209C759 115.644 759.67 116 760.489 116C764.152 116 775 128.246 775 132.381C775 133.18 775.497 133.999 776.104 134.201C776.836 134.445 777.212 139.108 777.219 148.035C777.228 160.18 776.988 162.039 774.776 167C773.427 170.025 770.563 174.367 768.411 176.649C764.091 181.232 755.148 186 750.872 186C749.357 186 747.84 186.45 747.5 187C746.668 188.346 737.155 188.268 731.264 186.866C715.256 183.057 706.931 175.559 703.101 161.5C700.374 151.492 702.643 132.907 707.186 128.031C708.184 126.96 709 125.667 709 125.158C709 123.997 716.036 117.589 719.162 115.905C728.146 111.062 741.583 109.777 752.586 112.709ZM836.587 113.937C841.957 117.016 845 120.623 845 123.906C845 124.993 845.45 126.16 846 126.5C846.623 126.885 847 136.443 847 151.858V176.598L850.321 177.799C852.148 178.46 854.623 179 855.821 179C857.645 179 858 179.571 858 182.5V186H837H816V182.5C816 179.465 816.321 179 818.418 179C826.156 179 827 176.362 827 152.172C827 130.163 826.237 126.34 821.402 124.137C818.628 122.873 816.72 123.245 810.022 126.351C805.681 128.365 800.787 134.083 801.412 136.412C801.72 137.561 801.979 147.09 801.986 157.589L802 176.679L804.547 177.839C805.948 178.478 807.925 179 808.94 179C811.12 179 812.079 180.981 811.315 183.904C810.781 185.946 810.238 186 790.383 186H770V182.5C770 179.224 770.208 178.998 773.25 178.968C775.038 178.951 777.4 178.256 778.5 177.425C780.412 175.981 780.5 174.743 780.5 149.376C780.5 124.261 780.396 122.763 778.559 121.419C777.491 120.639 775.129 120 773.309 120C770.194 120 770 119.795 770 116.5V113H786.142H802.285L801.662 118.959L801.039 124.917L806.27 119.617C815.16 110.609 826.938 108.402 836.587 113.937ZM410.686 120.587C407.453 123.82 405.286 129.794 404.641 137.25L404.145 143H416.701H429.258L428.568 134.75C427.796 125.534 426.355 121.248 423.751 120.421C422.788 120.115 422 119.446 422 118.933C422 118.42 420.036 118 417.636 118C414.276 118 412.678 118.595 410.686 120.587ZM664.095 120.491C660.66 123.876 659.032 129.41 659.015 137.761C658.986 151.567 665.513 158.913 674.266 154.925C678.631 152.936 680.373 147.904 680.434 137.103C680.478 129.27 680.105 126.61 678.558 123.737C675.308 117.703 668.479 116.17 664.095 120.491ZM735.841 119.344C732.331 120.904 729 123.977 729 125.655C729 126.395 728.55 127 728 127C727.45 127 727 128.035 727 129.3C727 130.565 726.51 132.09 725.912 132.688C724.531 134.069 724.429 163.981 725.795 166.622C726.329 167.655 727.379 169.85 728.127 171.5C729.977 175.58 733.675 178.717 737.478 179.43C741.132 180.115 747 179.157 747 177.875C747 177.394 747.563 176.999 748.25 176.999C750.532 176.996 754.009 167.068 754.965 157.827C755.928 148.526 754.69 131.354 752.928 129.55C752.418 129.028 752 128.011 752 127.291C752 125.258 746.876 120 744.894 120C743.917 120 742.84 119.55 742.5 119C741.708 117.718 739.209 117.847 735.841 119.344ZM558.626 149.728C553.54 150.487 547.996 158.145 548.004 164.404C548.014 172.784 557.601 179.474 564.264 175.75C569.951 172.571 570 172.441 570 160.345V149L565.75 149.15C563.413 149.232 560.207 149.493 558.626 149.728ZM655.933 187.101C655.219 188.421 654.631 191.571 654.626 194.103C654.613 199.788 657.483 203.061 664.621 205.501C669.77 207.262 677.372 206.936 681.423 204.78C685.769 202.468 688.967 197.685 688.984 193.472C689.01 186.814 687.188 185.984 671.035 185.293L657.23 184.703L655.933 187.101ZM111.07 195C112.658 195 113 195.715 113 199.035C113 206.459 108.191 210.293 103.829 206.345C101.236 203.998 101.17 194.696 103.75 195.186C105.069 195.436 105.575 196.687 105.805 200.259C106.019 203.586 106.541 205 107.555 205C108.622 205 109 203.694 109 200C109 196.222 108.633 195 107.5 195C105.69 195 105.486 192.342 107.25 191.739C107.938 191.504 108.644 192.141 108.82 193.156C109.001 194.201 109.976 195 111.07 195ZM220.728 193.931C220.44 195.034 221.034 196.732 222.112 197.889C224.11 200.034 224.687 204 223 204C222.45 204 222 204.627 222 205.393C222 208.446 215.591 208.919 213.768 206C212.157 203.42 211 203.45 211 206.073C211 208.938 207.602 208.196 207.18 205.24C206.73 202.079 204 202.365 204 205.573C204 207.486 203.551 208.06 202.25 207.81C200.816 207.534 200.5 206.393 200.5 201.5C200.5 196.607 200.816 195.466 202.25 195.19C203.551 194.94 204 195.514 204 197.427C204 200.766 206.577 200.821 207.411 197.5C207.756 196.125 208.705 195 209.519 195C210.432 195 211 195.959 211 197.5C211 198.875 211.45 200 212 200C212.55 200 213 199.518 213 198.929C213 198.339 213.563 197.23 214.25 196.463C214.938 195.697 216.08 194.379 216.789 193.535C218.681 191.283 221.35 191.552 220.728 193.931ZM88 194C88 194.55 87.55 195 87 195C86.436 195 86 197.833 86 201.5C86 205.167 85.564 208 85 208C84.422 208 84 204.833 84 200.5C84 193.667 84.178 193 86 193C87.1 193 88 193.45 88 194ZM253.245 199.25C252.789 206.707 252.348 208.333 251.007 207.504C249.916 206.83 249.617 197.161 250.607 194.582C250.941 193.712 251.757 193 252.421 193C253.275 193 253.516 194.825 253.245 199.25ZM38 195.992C38 196.537 37.1 197.545 36 198.232C34.509 199.164 34 200.564 34 203.741C34 206.083 33.55 208 33 208C32.45 208 32 205.975 32 203.5C32 201.025 31.566 199 31.035 199C30.505 199 29.589 198.1 29 197C27.996 195.123 28.24 195 32.965 195C35.734 195 38 195.446 38 195.992ZM43.41 196.268C44.108 196.965 44.997 198.877 45.387 200.518C45.777 202.158 46.352 204.512 46.664 205.75C47.331 208.389 45.835 208.692 43.528 206.385C42.041 204.898 41.762 204.905 40.019 206.483C38.978 207.425 37.706 207.936 37.193 207.619C35.7 206.696 39.871 195 41.694 195C41.941 195 42.713 195.57 43.41 196.268ZM55.571 196.429C56.357 197.214 57 198.596 57 199.5C57 201.295 54.709 204 53.188 204C52.663 204 51.986 204.947 51.683 206.105C50.815 209.423 48.533 207.737 48.18 203.518C47.672 197.433 48.646 195 51.59 195C52.994 195 54.786 195.643 55.571 196.429ZM69.81 196.75C69.624 197.713 68.916 198.556 68.236 198.625C67.556 198.694 66.52 198.806 65.934 198.875C65.347 198.944 65.01 200.238 65.184 201.75C65.41 203.719 66.139 204.591 67.75 204.82C71.164 205.304 70.576 208 67.057 208C61.548 208 59.202 201.543 63.174 197.314C65.815 194.504 70.316 194.121 69.81 196.75ZM75 197.5C75 199.333 75.533 200 77 200C78.467 200 79 199.333 79 197.5C79 195.944 79.567 195 80.5 195C82.128 195 82.154 195.094 82.154 201C82.154 207.582 82.059 208 80.57 208C79.783 208 78.995 206.988 78.82 205.75C78.4 202.798 75.593 202.843 75.173 205.808C74.956 207.34 74.283 208.008 73.173 207.794C71.828 207.535 71.53 206.396 71.653 201.986C71.856 194.73 71.784 195 73.5 195C74.433 195 75 195.944 75 197.5ZM100 197.059C100 198.191 99.591 198.865 99.09 198.556C97.377 197.497 95 199.213 95 201.509C95 203.173 95.846 204.099 98.075 204.876C101.462 206.057 101.18 208 97.621 208C95.152 208 91 203.896 91 201.457C91 199.127 95.218 195.13 97.75 195.061C99.375 195.017 100 195.572 100 197.059ZM120.608 196.75C121.339 197.713 121.951 199.486 121.968 200.691C121.986 201.896 122.45 203.16 123 203.5C123.55 203.84 124 204.991 124 206.059C124 208.343 121.199 208.682 120.362 206.5C120.045 205.675 119.145 205 118.362 205C117.578 205 116.678 205.675 116.362 206.5C115.781 208.014 112.988 208.64 113.015 207.25C113.027 206.624 114.287 202.652 116.504 196.25C117.121 194.469 119.055 194.705 120.608 196.75ZM131.195 199.672C131.613 206.08 133.794 206.554 134.193 200.323C134.425 196.691 134.927 195.437 136.25 195.186C137.733 194.904 138 195.638 138 199.998C138 207.729 133.528 210.63 129.039 205.811C127.058 203.685 126.175 197.158 127.667 195.667C129.557 193.776 130.911 195.312 131.195 199.672ZM147.428 197.201C148.628 198.914 148.696 199.595 147.735 200.277C146.757 200.97 146.76 201.258 147.75 201.659C149.555 202.392 149.285 205.063 147.25 206.608C145.023 208.298 140.048 208.394 139.849 206.75C139.409 203.102 139.344 198.292 139.714 196.75C140.339 194.149 145.502 194.451 147.428 197.201ZM153.725 196.75C154.09 197.713 154.976 199.095 155.694 199.821C156.772 200.912 157 200.607 157 198.071C157 196.382 157.441 195 157.981 195C159.273 195 160 198.542 159.723 203.488C159.443 208.489 157.051 209.295 155.166 205.023C153.462 201.16 152 201.149 152 205C152 206.65 151.55 208 151 208C150.436 208 150 205.167 150 201.5C150 196.33 150.313 195 151.531 195C152.374 195 153.361 195.787 153.725 196.75ZM169.777 196.557C172.967 198.791 172.847 204.399 169.565 206.55C168.225 207.427 165.863 208 164.315 207.823C161.708 207.524 161.477 207.139 161.19 202.627C161.02 199.947 161.118 197.134 161.409 196.377C162.12 194.525 167.027 194.63 169.777 196.557ZM185.079 196.25C185.142 197.25 185.259 197.25 185.662 196.25C186.347 194.552 190.81 194.668 192.571 196.429C195.267 199.124 193.335 204 189.571 204C188.646 204 188 204.856 188 206.083C188 210.015 185.505 207.386 185 202.922C184.725 200.49 184.162 198.613 183.75 198.75C183.338 198.887 182.662 198.999 182.25 198.999C181.838 198.998 181.5 200.869 181.5 203.157C181.5 205.591 180.981 207.492 180.25 207.741C179.37 208.041 179 206.81 179 203.583C179 201.063 178.566 199 178.035 199C177.505 199 176.589 198.1 176 197C174.996 195.123 175.24 195 179.965 195C183.284 195 185.027 195.426 185.079 196.25ZM236.81 196.748C236.625 197.71 235.804 198.541 234.987 198.596C231.417 198.835 231 199.128 231 201.402C231 203.185 231.793 204.081 234.075 204.876C237.523 206.078 237.157 208 233.48 208C230.612 208 227 204.431 227 201.597C227 198.707 231.006 195.131 234.323 195.06C236.489 195.014 237.068 195.407 236.81 196.748ZM241.82 197.76C242.27 200.921 245 200.635 245 197.427C245 195.514 245.449 194.94 246.75 195.19C248.184 195.466 248.5 196.607 248.5 201.5C248.5 206.393 248.184 207.534 246.75 207.81C245.449 208.06 245 207.486 245 205.573C245 202.365 242.27 202.079 241.82 205.24C241.644 206.472 240.713 207.63 239.75 207.813C238.225 208.104 238 207.291 238 201.5C238 195.709 238.225 194.896 239.75 195.187C240.713 195.37 241.644 196.528 241.82 197.76ZM263.513 197.185C264.991 200.457 267 200.644 267 197.51C267 194.02 270.326 194.446 270.903 198.01L271.305 200.5L271.947 198.005C272.299 196.633 273.355 195.363 274.294 195.182C275.759 194.9 276 195.76 276 201.266V207.678L272.25 207.552C269.085 207.445 268.437 207.041 268.097 204.963L267.695 202.5L267.053 204.995C266.195 208.336 263.024 208.973 262.932 205.823L262.865 203.5L261.767 205.778C260.214 209 258.482 207.927 258.599 203.816C258.827 195.815 261.354 192.406 263.513 197.185ZM282 197.5C283.381 200.081 285.613 201.04 284.7 198.659C283.997 196.829 285.519 194.585 286.888 195.431C288.371 196.347 288.325 206.681 286.834 207.602C286.152 208.024 284.704 207.117 283.339 205.411L281.01 202.5L281.005 205.323C281.001 207.473 280.583 208.066 279.25 207.808C277.883 207.543 277.475 206.38 277.384 202.485C277.32 199.743 277.48 196.938 277.741 196.25C278.511 194.215 280.565 194.818 282 197.5ZM292.589 197.5C292.982 199.064 293.925 200 295.108 200C296.459 200 297 199.286 297 197.5C297 196.125 297.45 195 298 195C299.145 195 299.214 195.371 299.214 201.5C299.214 207.629 299.145 208 298 208C297.45 208 297 207.148 297 206.107C297 205.066 296.397 203.982 295.659 203.7C293.875 203.015 291.819 204.362 292.197 205.967C292.364 206.672 291.938 207.456 291.25 207.708C290.33 208.046 290 206.428 290 201.583C290 194.996 291.405 192.781 292.589 197.5ZM754 196.5C754 197.325 754.513 198 755.14 198C755.767 198 756.81 198.725 757.457 199.611C758.535 201.084 758.785 201.073 760.381 199.476C761.901 197.956 762.451 197.903 764.629 199.069C766.711 200.183 767.268 200.184 767.953 199.076C769.019 197.351 771.087 198.609 770.349 200.532C769.998 201.447 770.391 202 771.393 202C772.277 202 773 201.373 773 200.607C773 198.662 775.769 197.806 778.072 199.039C779.74 199.931 780 199.729 780 197.535C780 196.141 780.45 195 781 195C781.55 195 782 196.125 782 197.5C782 200.345 782.279 200.467 784.952 198.798C786.482 197.842 787.435 197.893 789.602 199.048C791.721 200.177 792.421 200.222 792.747 199.25C793.244 197.77 797 197.549 797 199C797 199.55 797.675 200 798.5 200C799.325 200 800 199.55 800 199C800 197.599 804.349 197.749 805.8 199.2C806.733 200.133 807 200.022 807 198.7C807 197.667 807.784 197 809 197C810.1 197 811 197.45 811 198C811 198.55 811.45 199 812 199C812.55 199 813 198.1 813 197C813 195.889 813.667 195 814.5 195C815.325 195 816 195.839 816 196.865C816 198.469 816.654 198.681 820.666 198.381C823.233 198.189 825.904 198.506 826.603 199.085C827.496 199.827 828.502 199.801 830 199C831.591 198.148 832.474 198.148 833.5 199C834.514 199.842 835.416 199.848 836.957 199.023C839.176 197.835 841.42 198.511 840.453 200.077C839.79 201.149 842.316 204 843.929 204C844.518 204 845 203.1 845 202C845 200.9 844.438 199.993 843.75 199.985C842.917 199.974 843 199.646 844 199C846.194 197.582 846.996 197.781 847.032 199.75C847.06 201.313 847.194 201.333 848.282 199.941C849.727 198.092 857.153 197.645 858.233 199.342C859.59 201.476 859.093 206 857.5 206C856.667 206 856 205.111 856 204C856 202.9 855.55 202 855 202C854.45 202 854 202.9 854 204C854 205.1 853.55 206 853 206C852.45 206 852 205.1 852 204C852 202.9 851.55 202 851 202C850.45 202 850 202.648 850 203.441C850 205.485 847.932 206.508 846.964 204.942C846.379 203.995 845.782 203.925 844.826 204.689C842.996 206.151 837.041 206.875 836.328 205.721C836.007 205.202 836.351 204.401 837.093 203.943C838.831 202.868 837.569 201.568 835.543 202.345C834.694 202.671 834 203.851 834 204.969C834 207.361 831.771 207.628 829.635 205.492C828.701 204.558 827.891 204.368 827.505 204.992C826.423 206.743 825 206.085 825 203.833C825 202.642 824.663 202.004 824.25 202.417C823.837 202.829 823.5 203.686 823.5 204.32C823.5 204.954 822.712 205.624 821.75 205.81C820.538 206.043 820 205.51 820 204.073C820 202.933 819.55 202 819 202C818.45 202 818 202.904 818 204.008C818 205.747 817.396 205.993 813.5 205.846C811.025 205.752 809 205.209 809 204.638C809 204.011 808.525 204.075 807.8 204.8C805.96 206.64 804 206.228 804 204C804 202.9 803.55 202 803 202C802.45 202 802 202.9 802 204C802 205.1 801.55 206 801 206C800.45 206 800 205.498 800 204.885C800 204.18 799.152 204.326 797.692 205.282C796.035 206.368 794.882 206.514 793.605 205.799C792.226 205.027 791.495 205.275 790.356 206.902C788.769 209.168 783.803 209.838 784.075 207.75C784.459 204.787 784.001 203.754 782.75 204.763C782.063 205.317 778.462 205.956 774.75 206.183C768.256 206.579 768 206.508 768 204.297C768 201.259 766.605 201.377 765.165 204.538C764.202 206.65 763.684 206.901 762.07 206.038C761.004 205.467 759.122 205.113 757.888 205.25C756.243 205.433 755.451 204.832 754.922 203L754.199 200.5L754.1 203.133C754.025 205.11 753.377 205.886 751.501 206.245C748.337 206.849 746.196 205.209 745.962 202C745.626 197.419 745.918 196.745 748 197.29C749.3 197.63 750 197.32 750 196.406C750 195.633 750.9 195 752 195C753.111 195 754 195.667 754 196.5ZM52 199.559C52 200.416 52.457 200.835 53.016 200.49C53.575 200.144 53.774 199.443 53.457 198.931C52.6 197.544 52 197.802 52 199.559ZM143 199C143 199.55 143.45 200 144 200C144.55 200 145 199.55 145 199C145 198.45 144.55 198 144 198C143.45 198 143 198.45 143 199ZM165 201.5C165 203.989 165.402 205.033 166.25 204.75C166.938 204.521 167.5 203.058 167.5 201.5C167.5 199.942 166.938 198.479 166.25 198.25C165.402 197.967 165 199.011 165 201.5ZM188 199.469C188 200.361 188.587 200.712 189.494 200.364C190.316 200.048 190.74 199.388 190.435 198.895C189.563 197.483 188 197.851 188 199.469ZM216.25 198.731C215.563 198.97 215 200.206 215 201.476C215 203.862 216.568 205.03 218.75 204.269C219.438 204.03 220 202.794 220 201.524C220 199.138 218.432 197.97 216.25 198.731ZM712.68 199.609C713.236 201.059 713.394 201.047 714.266 199.489C715.05 198.089 715.394 198.019 716.075 199.122C716.745 200.206 717.17 200.23 718.158 199.242C719.76 197.64 722.689 197.644 723.341 199.25C723.723 200.194 724.13 200.133 725 199C725.814 197.941 726.294 197.846 726.635 198.677C726.993 199.55 727.908 199.579 730.167 198.792C731.906 198.186 733.491 198.11 733.857 198.615C734.691 199.764 741 199.977 741 198.856C741 198.385 741.45 198 742 198C743.446 198 743.232 203.735 741.75 204.676C739.36 206.193 734.533 205.568 732.783 203.515C731.221 201.681 731.064 201.66 731.033 203.281C730.99 205.575 728.071 206.715 726.899 204.896C726.137 203.712 725.865 203.71 725.112 204.878C724.073 206.489 722 205.532 722 203.441C722 202.648 721.55 202 721 202C720.45 202 720 202.9 720 204C720 205.333 719.333 206 718 206C716.9 206 716 205.46 716 204.8C716 203.867 715.733 203.867 714.8 204.8C712.96 206.64 711 206.228 711 204C711 202.9 710.55 202 710 202C709.45 202 709 201.1 709 200C709 197.604 711.797 197.307 712.68 199.609ZM41.5 201C41.16 201.55 41.359 202 41.941 202C42.523 202 43 201.55 43 201C43 200.45 42.802 200 42.559 200C42.316 200 41.84 200.45 41.5 201ZM786.015 201.75C786.007 202.988 786.45 204 787 204C788.253 204 788.253 202.939 787 201C786.216 199.787 786.028 199.931 786.015 201.75ZM811 202C811 203.1 811.45 204 812 204C812.55 204 813 203.1 813 202C813 200.9 812.55 200 812 200C811.45 200 811 200.9 811 202ZM749.079 202.583C749.127 203.748 749.364 203.985 749.683 203.188C749.972 202.466 749.936 201.603 749.604 201.271C749.272 200.939 749.036 201.529 749.079 202.583ZM794.25 201.718C792.277 202.426 792.794 204 795 204C796.1 204 797 203.577 797 203.059C797 201.779 795.763 201.176 794.25 201.718ZM143 203.941C143 204.459 143.45 205.16 144 205.5C144.55 205.84 145 205.416 145 204.559C145 203.702 144.55 203 144 203C143.45 203 143 203.423 143 203.941ZM196.5 206C196.5 206.81 195.713 207.624 194.75 207.81C193.522 208.046 193 207.506 193 206C193 204.494 193.522 203.954 194.75 204.19C195.713 204.376 196.5 205.19 196.5 206ZM745 205C745 205.55 744.55 206 744 206C743.45 206 743 205.55 743 205C743 204.45 743.45 204 744 204C744.55 204 745 204.45 745 205ZM43 209.5C43 210.325 42.325 211 41.5 211C38.898 211 39.741 209.029 42.75 208.079C42.888 208.036 43 208.675 43 209.5Z" fill="black"/>
</svg>