<svg xmlns="http://www.w3.org/2000/svg" width="141" height="50" viewBox="0 0 141 50" fill="none">
  <path d="M53.0759 12.9305V21.3219H49.5521V0.418076H59.347C63.7966 0.418076 65.8272 2.95639 65.8272 6.09196C65.8272 8.60041 64.5431 10.4519 62.9007 10.8998V12.0047C64.5431 12.2735 65.2897 13.2291 65.4987 15.6181L65.9467 21.3219H62.2138L61.8555 16.3049C61.7659 14.9611 61.4673 14.0653 61.0193 13.6173C60.5714 13.1694 59.6457 12.9305 58.3018 12.9305H53.0759ZM58.6005 3.40433H53.0759V10.0338H58.6005C61.2284 10.0338 61.8854 9.58588 61.8854 6.71907C61.8854 3.85227 61.2284 3.40433 58.6005 3.40433Z" fill="white"/>
  <path d="M77.0075 13.4083V21.3219H73.4538V13.3784L65.9882 0.418076H69.9898L73.0357 5.94265C73.8122 7.37605 74.3497 8.71986 74.6782 10.004H75.7532C76.0817 8.60041 76.5894 7.2566 77.336 5.94265L80.4118 0.418076H84.4432L77.0075 13.4083Z" fill="white"/>
  <path d="M89.5602 13.1097V21.3219H86.0066V0.418076H95.3237C99.2656 0.418076 102.282 2.59804 102.282 6.7788C102.282 10.8998 99.2058 13.1097 95.3536 13.1097H89.5602ZM95.0251 3.40433H89.5602V10.1533H95.0251C97.6231 10.1533 98.2801 9.6456 98.2801 6.80866C98.2801 3.85227 97.6231 3.40433 95.0251 3.40433Z" fill="white"/>
  <path d="M112.432 3.40433V21.3219H108.879V3.40433H102.219V0.418076H119.091V3.40433H112.432Z" fill="white"/>
  <path d="M129.623 21.7399C126.278 21.7399 123.68 20.7545 121.829 18.7835C120.007 16.8126 119.081 14.1548 119.081 10.8401C119.081 4.35993 122.934 0 129.742 0C133.087 0 135.685 0.985464 137.507 2.95639C139.358 4.89746 140.284 7.55522 140.284 10.8998C140.284 17.3501 136.461 21.7399 129.623 21.7399ZM129.713 18.4551C133.296 18.4551 134.968 17.9474 135.655 15.7077C136.043 14.5132 136.163 13.1395 136.163 10.8998C136.163 7.67467 135.864 5.76347 134.968 4.65856C134.401 3.97172 133.326 3.52378 132.042 3.40433C131.415 3.31474 130.638 3.28488 129.713 3.28488C128.787 3.28488 127.98 3.31474 127.353 3.40433C124.009 3.73282 123.202 5.5843 123.202 10.8998C123.202 17.3501 124.397 18.4551 129.713 18.4551Z" fill="white"/>
  <path d="M53.116 40.869V48.6833H49.5521V27.1478H54.2221L60.7968 38.1617C61.8414 39.9768 62.7324 41.7304 63.439 43.4225H64.5143C64.2378 41.1766 64.1149 38.377 64.1149 35.0236V27.1478H67.6788V48.6833H63.0396L56.4648 37.6694C55.3895 35.8543 54.5293 34.1007 53.8226 32.4086H52.7166C52.8702 33.7315 52.9931 34.9621 53.0238 36.162C53.0853 37.331 53.116 38.9 53.116 40.869Z" fill="white"/>
  <path d="M81.4486 49.114C78.0076 49.114 75.3346 48.0988 73.4298 46.0683C71.5557 44.0378 70.6033 41.2997 70.6033 37.8848C70.6033 31.2088 74.5666 26.7171 81.5715 26.7171C85.0125 26.7171 87.6854 27.7323 89.5595 29.7628C91.4643 31.7626 92.4167 34.5006 92.4167 37.9463C92.4167 44.5916 88.4842 49.114 81.4486 49.114ZM81.5407 45.7299C85.2275 45.7299 86.948 45.2069 87.6547 42.8995C88.0541 41.6689 88.1769 40.2537 88.1769 37.9463C88.1769 34.6237 87.8697 32.6547 86.948 31.5164C86.3643 30.8088 85.2582 30.3474 83.9371 30.2243C83.292 30.132 82.4932 30.1012 81.5407 30.1012C80.5883 30.1012 79.7588 30.132 79.1136 30.2243C75.6726 30.5627 74.8431 32.4702 74.8431 37.9463C74.8431 44.5916 76.072 45.7299 81.5407 45.7299Z" fill="white"/>
  <path d="M98.8713 38.8693V48.6833H95.3381V27.1478H101.268L104.494 38.0694C105.2 40.5613 105.63 42.5303 105.753 44.007H106.859C107.013 42.4995 107.443 40.5306 108.15 38.0694L111.376 27.1478H117.305V48.6833H113.772V38.8077C113.772 36.5004 113.895 34.1315 114.11 31.6703H112.973C112.635 33.6085 112.052 36.1312 111.161 39.2384L108.488 48.6833H104.156L101.544 39.2692C100.653 36.1312 100.039 33.6085 99.7008 31.6703H98.5333C98.7484 34.1007 98.8713 36.5004 98.8713 38.8693Z" fill="white"/>
  <path d="M130.245 40.5306V48.6833H126.589V40.4998L118.909 27.1478H123.025L126.159 32.8393C126.958 34.3161 127.511 35.7005 127.849 37.0234H128.955C129.293 35.5774 129.815 34.193 130.583 32.8393L133.748 27.1478H137.895L130.245 40.5306Z" fill="white"/>
  <path d="M11.0719 29.4239V48.6959H6.10352e-05V0.16925H11.0719V18.54H13.8217L29.742 0.16925H43.4913L31.0446 14.5193C26.9198 19.4413 24.2423 21.7983 21.42 22.5608V25.3338C24.6041 26.1657 27.0645 28.3147 31.4064 33.306L44.7939 48.6959H30.8998L13.8217 29.4239H11.0719Z" fill="url(#paint0_linear_3046_689)"/>
  <defs>
    <linearGradient id="paint0_linear_3046_689" x1="40.4389" y1="25.0547" x2="10.5398" y2="24.4326" gradientUnits="userSpaceOnUse">
      <stop stop-color="#DFDFDF"/>
      <stop offset="1" stop-color="white"/>
    </linearGradient>
  </defs>
</svg>