<svg width="193" height="26" viewBox="0 0 193 26" fill="none" xmlns="http://www.w3.org/2000/svg">
<path d="M51.2071 12.5268V22.8712H48.7072V2.75705H53.1898L56.7242 14.4233C56.7242 14.452 56.8104 14.7393 56.954 15.2566C57.1264 15.7738 57.2414 16.0899 57.2701 16.2335C57.2988 16.3772 57.385 16.6645 57.5287 17.1243C57.6724 17.5553 57.7586 17.9001 57.7873 18.1587C57.9023 18.6185 58.0747 19.4518 58.1034 20.0552H59.0229C59.1666 18.9633 59.3103 18.2449 59.6263 17.1243C59.7413 16.6933 59.8275 16.4059 59.8562 16.2623C59.9137 16.0899 60.0286 15.7738 60.1723 15.2853C60.316 14.7968 60.4022 14.5095 60.4309 14.4233L63.9653 2.75705H68.4478V22.8712H65.9479V12.5268C65.9479 10.9176 66.0341 8.67636 66.1778 5.80291H65.2008C64.7411 8.01546 64.1089 10.4579 63.2756 13.1302L60.2872 22.8712H56.8678L53.9082 13.1302C52.9025 9.73953 52.2703 7.2971 51.9542 5.80291H50.9773C51.1209 8.67636 51.2071 10.9176 51.2071 12.5268Z" fill="white"/>
<path d="M85.3646 16.291H74.1007C73.8995 19.7679 75.1638 21.1471 78.6407 21.1471C81.3992 21.1471 82.6061 20.4288 82.836 18.2449H85.1922C85.0485 21.3483 82.4911 23.2735 78.6982 23.2735C74.2443 23.2735 71.5433 20.7161 71.5433 15.5439C71.5433 10.6878 74.1581 7.67065 78.7269 7.67065C82.3762 7.67065 85.4508 9.91194 85.4508 14.883C85.4508 15.3715 85.4221 15.8312 85.3646 16.291ZM78.5833 9.88321C76.8879 9.88321 75.7098 10.228 75.0489 10.8889C74.388 11.5498 74.1007 12.6705 74.1294 14.3083H82.836C82.9509 12.613 82.6923 11.4636 82.0601 10.8314C81.428 10.1993 80.2786 9.88321 78.5833 9.88321Z" fill="white"/>
<path d="M94.4584 20.8023V22.8712H93.0791C90.4643 22.8712 89.0563 21.5781 89.0563 19.0782V10.0269H86.7575V8.07293H89.0563V4.19377H91.47V8.07293H94.4871V10.0269H91.47V19.4231C91.47 20.4862 91.7861 20.8023 92.9067 20.8023H94.4584Z" fill="white"/>
<path d="M101.481 23.216C98.3492 23.216 96.2803 21.4919 96.2803 18.5323C96.2803 15.9175 98.0044 14.5095 101.108 14.3083L106.452 13.9922V12.5555C106.452 11.4349 106.194 10.7165 105.677 10.343C105.159 9.96941 104.211 9.76827 102.861 9.76827C100.131 9.76827 99.2113 10.4579 99.0963 12.4406H96.7401C96.7114 9.56713 99.0963 7.67065 103.004 7.67065C105.935 7.67065 108.751 8.70509 108.751 12.5268V22.8712H106.424L106.366 21.5781H105.562C104.872 22.6413 103.32 23.216 101.481 23.216ZM102.458 21.2621C105.734 21.2621 106.452 20.3138 106.452 17.4978V15.7738L101.539 16.1186C100.418 16.2048 99.6997 16.4059 99.3549 16.7508C99.0101 17.0668 98.8377 17.7277 98.8377 18.7334C98.8377 20.7736 99.8147 21.2621 102.458 21.2621Z" fill="white"/>
<path d="M115.048 14.5095V22.8712H112.519V2.75705H121.226C123.093 2.75705 124.616 3.27427 125.794 4.30871C126.973 5.34316 127.576 6.77988 127.576 8.61889C127.576 10.4866 126.973 11.9234 125.794 12.9578C124.616 13.9922 123.093 14.5095 121.226 14.5095H115.048ZM121.111 4.96961H115.048V12.2969H121.111C123.927 12.2969 124.674 11.8084 124.674 8.61889C124.674 5.45809 123.927 4.96961 121.111 4.96961Z" fill="white"/>
<path d="M132.263 13.6762V22.8712H129.849V8.07293H132.177L132.234 9.36599H133.039C133.93 8.27407 135.251 7.69939 136.976 7.67065V10.0556H136.228C134.619 10.0556 133.556 10.2855 133.039 10.774C132.522 11.2625 132.263 12.2107 132.263 13.6762Z" fill="white"/>
<path d="M151.639 16.291H140.375C140.174 19.7679 141.438 21.1471 144.915 21.1471C147.674 21.1471 148.881 20.4288 149.111 18.2449H151.467C151.323 21.3483 148.766 23.2735 144.973 23.2735C140.519 23.2735 137.818 20.7161 137.818 15.5439C137.818 10.6878 140.433 7.67065 145.001 7.67065C148.651 7.67065 151.725 9.91194 151.725 14.883C151.725 15.3715 151.697 15.8312 151.639 16.291ZM144.858 9.88321C143.162 9.88321 141.984 10.228 141.323 10.8889C140.663 11.5498 140.375 12.6705 140.404 14.3083H149.111C149.225 12.613 148.967 11.4636 148.335 10.8314C147.703 10.1993 146.553 9.88321 144.858 9.88321Z" fill="white"/>
<path d="M159.84 23.2735C156.392 23.2735 153.519 21.6069 153.633 18.3312H155.99C156.133 20.2564 156.737 21.2046 159.984 21.2046C162.943 21.2046 163.547 20.4575 163.547 18.7047C163.547 17.5841 162.943 17.0381 161.248 16.722L158.116 16.1473C155.329 15.6014 153.95 14.3083 153.95 12.2107C153.95 9.53839 156.306 7.67065 159.783 7.67065C161.478 7.67065 162.886 8.10167 164.007 8.9637C165.156 9.82574 165.731 11.0039 165.702 12.4693H163.346C163.231 10.5154 162.369 9.73953 159.696 9.73953C156.909 9.73953 156.306 10.4866 156.306 11.9808C156.306 13.1589 156.794 13.7336 158.777 14.0784L161.622 14.5669C164.524 15.0842 165.961 16.4347 165.961 18.5898C165.961 19.9978 165.386 21.1184 164.265 21.9804C163.145 22.8425 161.65 23.2735 159.84 23.2735Z" fill="white"/>
<path d="M174.004 23.2735C170.556 23.2735 167.683 21.6069 167.798 18.3312H170.154C170.297 20.2564 170.901 21.2046 174.148 21.2046C177.108 21.2046 177.711 20.4575 177.711 18.7047C177.711 17.5841 177.108 17.0381 175.412 16.722L172.28 16.1473C169.493 15.6014 168.114 14.3083 168.114 12.2107C168.114 9.53839 170.47 7.67065 173.947 7.67065C175.642 7.67065 177.05 8.10167 178.171 8.9637C179.32 9.82574 179.895 11.0039 179.866 12.4693H177.51C177.395 10.5154 176.533 9.73953 173.861 9.73953C171.073 9.73953 170.47 10.4866 170.47 11.9808C170.47 13.1589 170.958 13.7336 172.941 14.0784L175.786 14.5669C178.688 15.0842 180.125 16.4347 180.125 18.5898C180.125 19.9978 179.55 21.1184 178.429 21.9804C177.309 22.8425 175.815 23.2735 174.004 23.2735Z" fill="white"/>
<mask id="mask0_3046_1483" style="mask-type:alpha" maskUnits="userSpaceOnUse" x="0" y="0" width="40" height="26">
<path fill-rule="evenodd" clip-rule="evenodd" d="M39.13 13C39.13 5.8203 33.3097 -3.17693e-07 26.13 0C18.9503 3.09944e-07 13.13 5.8203 13.13 13C13.13 20.1797 18.9503 26 26.13 26C33.3097 26 39.13 20.1797 39.13 13ZM28.0536 11.0763C29.1222 12.1449 30.7448 12.372 33.99 12.8264L35.23 13L33.99 13.1736C30.7448 13.6279 29.1222 13.8551 28.0536 14.9236C26.9851 15.9922 26.7579 17.6147 26.3036 20.8599L26.13 22.1L25.9564 20.8599C25.5021 17.6147 25.2749 15.9921 24.2064 14.9236C23.1378 13.8551 21.5152 13.6279 18.27 13.1736L17.03 13L18.2701 12.8264C21.5152 12.372 23.1378 12.1449 24.2064 11.0763C25.2749 10.0078 25.5021 8.38519 25.9564 5.14001L26.13 3.9L26.3036 5.14C26.7579 8.38518 26.9851 10.0078 28.0536 11.0763Z" fill="white"/>
<path d="M3.51 25.9998C1.25661 22.4507 4.95911e-07 17.8181 0 12.9999C0 8.18175 1.25661 3.54908 3.51 5.68248e-07V25.9998Z" fill="white"/>
<path d="M7.83761 22.813C9.16632 24.2314 10.753 25.3111 12.48 25.9999V5.68248e-07C10.753 0.688845 9.16632 1.76851 7.83761 3.18693C5.39964 5.78951 4.03 9.31937 4.03 13C4.03 16.6806 5.39964 20.2104 7.83761 22.813Z" fill="white"/>
</mask>
<g mask="url(#mask0_3046_1483)">
<g clip-path="url(#clip0_3046_1483)">
<path d="M39.1301 7.62939e-06H7.62939e-05V26H39.1301V7.62939e-06Z" fill="white"/>
<path d="M39.1301 7.62939e-06H7.62939e-05V26H39.1301V7.62939e-06Z" fill="#FF6C02" fill-opacity="0.19"/>
<g filter="url(#filter0_f_3046_1483)">
<path d="M44.0212 3.9H3.71735V22.23H44.0212V3.9Z" fill="url(#paint0_linear_3046_1483)"/>
<path d="M68.0862 0H19.9563V28.99H68.0862V0Z" fill="#FF37BB"/>
</g>
</g>
</g>
<defs>
<filter id="filter0_f_3046_1483" x="-6.68265" y="-10.4" width="85.1688" height="49.79" filterUnits="userSpaceOnUse" color-interpolation-filters="sRGB">
<feFlood flood-opacity="0" result="BackgroundImageFix"/>
<feBlend mode="normal" in="SourceGraphic" in2="BackgroundImageFix" result="shape"/>
<feGaussianBlur stdDeviation="5.2" result="effect1_foregroundBlur_3046_1483"/>
</filter>
<linearGradient id="paint0_linear_3046_1483" x1="35.6582" y1="5.04563" x2="26.9005" y2="27.2807" gradientUnits="userSpaceOnUse">
<stop stop-color="#0E6FFF"/>
<stop offset="1" stop-color="#00F0FF"/>
</linearGradient>
<clipPath id="clip0_3046_1483">
<rect width="39.13" height="26" fill="white"/>
</clipPath>
</defs>
</svg>
