<svg xmlns="http://www.w3.org/2000/svg" width="144" height="80" viewBox="0 0 144 80" fill="none">
  <path fill-rule="evenodd" clip-rule="evenodd" d="M73.1851 13.3151V13.4299H74.8141C75.8487 13.4299 76.5091 13.4529 76.6241 13.493L76.805 13.556V37.5223V61.4885L76.6347 62.0094C76.541 62.2959 76.4217 62.6148 76.3695 62.7181C75.5126 64.4137 74.5325 65.3557 73.3 65.6681C72.8639 65.7787 72.3051 65.752 71.9321 65.6028C71.6292 65.4817 71.2688 65.0798 71.1496 64.7302L71.0591 64.4647V53.0737V41.6826L71.2065 41.6266C71.2922 41.594 72.2039 41.5706 73.3838 41.5706H75.4137L75.4486 41.4798C75.5048 41.3334 75.4889 41.1395 75.4145 41.0652L75.3456 40.9963L73.2454 40.9955C72.0904 40.9949 71.1105 40.9725 71.0679 40.9455L70.9904 40.8964L71.0329 37.0411L71.0754 33.1858H70.9831C70.8645 33.1858 70.8005 33.3111 70.7191 33.7027C70.6409 34.0788 70.3263 34.705 69.9634 35.2069C69.2748 36.1593 68.0103 36.891 66.8473 37.0101L66.479 37.0478L66.4492 38.9712L66.4193 40.8946L66.3403 40.9446C66.2969 40.9721 65.3402 40.9949 64.2142 40.9955L62.1671 40.9963L62.0987 41.0787C62.0611 41.124 62.0386 41.2468 62.0486 41.3515L62.0669 41.5419L64.1928 41.5706C65.3621 41.5864 66.3512 41.6202 66.3906 41.6458L66.4625 41.6923V51.7263C66.4625 58.2148 66.4832 61.9256 66.5212 62.2283C66.614 62.9685 66.7885 63.5756 67.1324 64.3554C67.1497 64.3946 66.9867 64.6102 66.77 64.8344L66.3763 65.2422L65.9129 65.4665C65.339 65.7442 64.903 65.8045 64.4404 65.6701C64.056 65.5584 63.8063 65.3267 63.5966 64.8872L63.4459 64.5713L63.4116 57.1629C63.3762 49.5294 63.3718 49.3839 63.1266 47.8327C62.9581 46.7659 62.665 45.7461 62.3417 45.1018C62.2785 44.9759 62.211 44.807 62.1918 44.7265C62.1223 44.4367 61.3305 43.3184 60.8387 42.8155C59.6657 41.6162 58.3966 40.9776 56.4647 40.6147L55.9188 40.5121L54.3674 40.5111L52.816 40.5102L52.2355 40.6378C51.0583 40.8965 50.06 41.3217 49.3111 41.8836C47.7866 43.0272 47.2131 44.4607 47.6782 45.9658C47.8315 46.4619 48.0489 46.7826 48.4131 47.0498C48.8488 47.3695 49.1114 47.4454 49.7995 47.4505L50.4028 47.455L50.746 47.3503C51.1584 47.2244 51.669 46.8758 51.8729 46.5809C52.2035 46.1026 52.2659 45.3373 52.0401 44.5283C51.8129 43.7142 51.7989 43.6176 51.8301 43.0925C51.8855 42.162 52.167 41.5419 52.7142 41.145C53.0949 40.8688 53.4743 40.7551 54.1196 40.7234C55.4311 40.6591 56.5104 41.0824 57.3607 41.9947L57.7828 42.4475L58.0485 42.9997C58.3589 43.645 58.5516 44.2214 58.6841 44.9016L58.7793 45.3897L58.8039 48.3812L58.8286 51.3727L58.6748 51.5553C58.1319 52.2002 56.8364 52.4968 52.9884 52.857C52.1352 52.9369 51.1254 53.0652 50.7447 53.1423C48.5498 53.5863 46.8608 54.5784 45.8698 56.0056C45.4325 56.6355 45.3803 56.7347 45.1181 57.4344C44.7016 58.5457 44.5173 59.9039 44.6256 61.0634C44.8234 63.1813 45.8055 64.6804 47.5985 65.6011L48.1044 65.861L45.5953 65.8622C44.2153 65.8629 43.0453 65.8478 42.9953 65.8286L42.9044 65.7938V43.4869V21.1801L43.0625 21.1178C43.2463 21.0453 45.7797 21.0927 46.6105 21.1842C49.3094 21.4815 51.6087 22.4481 53.152 23.9341C53.9599 24.712 54.7161 25.735 55.2153 26.725C55.3917 27.0749 55.8358 28.2693 56.0038 28.8459C56.2312 29.6259 56.4629 31.2246 56.4998 32.267C56.5358 33.285 56.5489 33.3581 56.6958 33.3581H56.8099L56.7953 27.0552L56.7807 20.7522H40.405H24.0293L24.0147 27.0552L24.0001 33.3581H24.1062H24.2125L24.2502 32.4867C24.2917 31.5285 24.3636 30.8293 24.4973 30.0846C24.6288 29.3521 24.9482 28.0945 25.11 27.6726C26.2561 24.6837 28.2142 22.7719 31.1321 21.7932C32.5479 21.3182 33.77 21.1373 35.9058 21.0862L37.3823 21.0509L37.529 21.147L37.6757 21.243V43.4422C37.6757 58.6348 37.6569 65.6764 37.6162 65.7524L37.5568 65.8635H36.266H34.9752V65.9784V66.0932L41.8846 66.0939L48.7939 66.0945L49.0761 66.18C50.4505 66.5968 52.8272 66.6871 54.3435 66.3801C55.064 66.2343 55.9781 65.9367 56.4745 65.6863C57.6517 65.0926 58.6011 64.1439 58.937 63.2257L59.0721 62.8564L59.1138 62.996C59.3143 63.6665 59.4262 63.9695 59.6355 64.408L59.8778 64.9159L60.369 65.4075L60.8602 65.8991L61.2625 66.1045C62.0199 66.4915 62.8632 66.6324 63.8732 66.5411C64.9978 66.4393 65.9407 65.9899 66.7704 65.16C67.0503 64.88 67.2839 64.6588 67.2894 64.6685C67.2949 64.6783 67.3359 64.7586 67.3806 64.847C67.4252 64.9354 67.6737 65.2112 67.9327 65.4598L68.4037 65.9117L68.8839 66.1389C69.4983 66.4296 69.9338 66.5446 70.6584 66.6075C71.617 66.6907 72.5772 66.5582 73.3812 66.2316L73.7221 66.0932H82.3742H91.0263L91.4284 66.2085C93.2678 66.7358 95.3823 66.7652 97.2225 66.2892C98.6487 65.9203 100.204 65.1043 101.397 64.0981C102.428 63.2288 104.058 61.2594 103.959 61.0017C103.941 60.9553 103.902 60.9322 103.873 60.9504C103.826 60.9795 103.385 61.5754 103.026 62.0954C102.959 62.1937 102.7 62.4963 102.452 62.7677C100.561 64.8358 98.3391 65.9703 95.5884 66.2723C94.7994 66.3589 93.3648 66.3031 92.6923 66.1598C90.9512 65.7886 89.6143 64.7617 88.83 63.193C88.4373 62.4078 88.0451 60.8309 87.8658 59.3165C87.7167 58.0576 87.5997 53.1443 87.7012 52.4042L87.7378 52.1377H96.1405H104.543L104.604 52.0643C104.674 51.981 104.607 50.8047 104.496 50.1469C104.347 49.2608 103.978 47.9088 103.683 47.17C103.405 46.4723 102.837 45.3945 102.425 44.7827C101.452 43.3388 100.311 42.2759 98.925 41.5234L98.3807 41.2279L102.126 41.227L105.871 41.226L105.961 41.3163L106.051 41.4065V53.5661V65.7257L105.982 65.7946L105.914 65.8635H104.632H103.351V65.9787V66.0939L108.335 66.0792L113.32 66.0645V65.9784V65.8922L111.998 65.8608C111.272 65.8435 110.67 65.8241 110.662 65.8177C110.655 65.8113 110.648 61.2511 110.648 55.6838V45.5615L110.784 45.1885C111.776 42.4697 112.911 41.2316 114.416 41.227C114.862 41.2256 115.295 41.3778 115.539 41.6216L115.751 41.8329L115.792 42.1638C115.852 42.6459 115.793 42.9152 115.497 43.4976L115.233 44.0175L115.203 44.3942L115.173 44.771L115.267 45.0531C115.388 45.4177 115.756 45.8651 116.097 46.0621C116.245 46.1476 116.532 46.2602 116.736 46.3124L117.106 46.4072L117.655 46.3848L118.204 46.3624L118.6 46.1768C119.081 45.9512 119.541 45.4906 119.79 44.9837L119.963 44.6338L119.995 44.1216C120.062 43.0381 119.806 42.2183 119.188 41.5363C118.819 41.1285 118.315 40.8396 117.627 40.6404L117.17 40.5082L116.049 40.5086L114.929 40.509L114.555 40.6121C114.35 40.6687 114.104 40.7501 114.009 40.7928C113.915 40.8355 113.737 40.9119 113.614 40.9624C113.128 41.1626 112.383 41.8093 111.857 42.4878C111.613 42.8014 110.993 43.9847 110.786 44.5283L110.677 44.8154L110.648 42.9202L110.619 41.025L104.098 40.9955L97.5763 40.9658L97.289 40.8633C97.131 40.8069 96.7561 40.7069 96.4558 40.6412L95.91 40.5216L94.7591 40.4941L93.6082 40.4667L92.9491 40.5625C91.7262 40.7402 90.8054 41.0268 89.6857 41.5779C88.1639 42.3267 86.8855 43.3705 85.7556 44.7867C85.293 45.3664 84.4465 46.7304 84.2228 47.2562C84.149 47.4299 83.9737 47.8434 83.8333 48.1751C83.5859 48.7597 83.2795 49.8194 83.1027 50.702C82.901 51.7095 82.8669 52.1326 82.8671 53.6309L82.8672 55.1528L82.973 55.7845C83.1506 56.8456 83.5549 58.3425 83.8448 59.012C83.9924 59.3532 84.1687 59.7616 84.2364 59.9195C84.3542 60.1941 84.6057 60.6428 85.025 61.3265C86.0838 63.0529 88.2083 64.9287 89.9056 65.6357C90.0794 65.7082 90.245 65.7879 90.2736 65.8129C90.327 65.8596 87.1854 65.8287 84.4143 65.7553L82.859 65.7141L82.5469 65.5532C81.9894 65.2657 81.7298 64.936 81.4799 64.198L81.373 63.8822L81.358 38.5412L81.3431 13.2002H77.2641H73.1851V13.3151ZM93.4105 40.7483C92.9501 40.7958 92.0613 41.0131 91.6447 41.1799C90.9867 41.4434 90.3689 41.8629 89.8908 42.3708L89.47 42.8179L89.0814 43.5869L88.6928 44.356L88.4959 45.1052C88.2436 46.0649 88.0964 46.7831 87.9836 47.6049C87.8523 48.5607 87.7221 50.2806 87.7221 51.0596V51.7357H93.8498H99.9775L99.9379 50.5728C99.884 48.9855 99.7094 47.0215 99.5204 45.8779C99.4039 45.1725 99.1106 44.1518 98.8233 43.4516C98.2109 41.9588 97.033 41.0139 95.479 40.7689C95.1307 40.714 93.865 40.7014 93.4105 40.7483ZM58.6768 52.0421C58.1912 52.3752 57.0305 52.6423 55.1419 52.8554C53.7107 53.017 53.0225 53.1254 52.5539 53.2631C51.8767 53.462 51.06 54.0051 50.5925 54.5674C50.1766 55.0676 49.5622 56.3617 49.4556 56.9619C49.4304 57.104 49.3695 57.427 49.3204 57.6797C49.1562 58.5241 49.0923 59.2789 49.0918 60.3789C49.0903 63.5688 49.9585 65.3399 51.8269 65.9587L52.2989 66.115L53.2757 66.1172L54.2525 66.1195L54.7448 65.995C55.7565 65.7393 56.6127 65.3169 57.3746 64.6975C58.0397 64.1569 58.616 63.2719 58.7612 62.5682C58.8018 62.3712 58.8169 60.5716 58.8068 57.1187L58.7917 51.9632L58.6768 52.0421ZM76.6884 62.3459C76.6057 62.65 76.2802 63.3295 75.925 63.9396C75.5045 64.6617 74.8792 65.372 74.364 65.7123L74.1352 65.8635H75.4701H76.805V63.9683C76.805 62.926 76.7954 62.0731 76.7837 62.0731C76.772 62.0731 76.7291 62.1959 76.6884 62.3459Z" fill="white"/>
</svg>